:SAMPLES-PER-SECOND 30
:FRAME-RANGE 1-564
:FULLY-SPECIFIED
:DEGREES
353
root  11.6299 38.7357 -69.1464 179.829 -40.465 178.078
RightUpLeg  -20.0375 -11.5044 -7.39623
RightLeg  23.4407 -5.51799 -2.82477
RightFoot  -8.53248 -0.119157 2.49683
RightToes  1.21801e-010 1.2921e-014 -6.02303e-014
Spine  -8.40586 -0.585156 -0.644095
Spine1  8.45678 -0.325041 -2.89978
HEad  26.3761 -11.3767 3.04461
LeftShoulder1  0.947097 -1.03769 -15.2219
LeftArm  -0.136297 7.64508 -31.6283
LeftForeArm  12.2735 -72.6385 -39.9279
LeftHand  -0.0712071 6.40496 -3.63425
RightShoulder  1.72633 3.0675 20.7817
RightArm  9.7015 27.7962 53.5343
RightForeArm  -2.04017 45.7201 11.6382
RightHand  -0.114502 -8.80257 2.14022
LeftUpLeg  2.91993 4.57342 -1.19242
LeftLeg  15.2467 2.2976 1.6366
LeftFoot  -16.0829 0.0422354 -1.30924
LeftToes  1.70735e-010 3.74918e-011 3.68705e-011
354
root  11.4359 38.7019 -69.7749 179.56 -38.4064 178.678
RightUpLeg  -20.2999 -11.7755 -7.28713
RightLeg  18.243 -7.02211 -2.77839
RightFoot  -7.06953 -0.154863 2.86311
RightToes  1.21801e-010 1.2921e-014 -6.02303e-014
Spine  -8.73554 -1.05968 -0.672543
Spine1  8.52105 -0.873542 -2.23797
HEad  27.1863 -11.339 3.33089
LeftShoulder1  1.06537 -1.65182 -14.8789
LeftArm  0.016818 7.0589 -31.8136
LeftForeArm  8.89748 -71.1165 -35.8714
LeftHand  -0.0481308 5.74016 -4.06279
RightShoulder  1.65228 2.64267 21.5085
RightArm  10.3815 27.4395 53.5319
RightForeArm  -1.66581 45.0585 11.3448
RightHand  -0.0972921 -8.25444 1.99334
LeftUpLeg  4.17365 4.69351 -0.59363
LeftLeg  14.8675 4.15008 2.33401
LeftFoot  -16.6117 -0.000807516 -2.18117
LeftToes  1.70735e-010 3.74918e-011 3.68705e-011
355
root  11.2672 38.6457 -70.471 179.42 -36.1574 179.112
RightUpLeg  -20.2983 -11.4564 -7.23106
RightLeg  12.9428 -8.67538 -2.29154
RightFoot  -5.82199 -0.172142 2.7488
RightToes  1.21801e-010 1.2921e-014 -6.02303e-014
Spine  -8.80567 -1.35064 -0.848353
Spine1  8.34275 -1.31784 -1.23597
HEad  27.9785 -11.0974 3.29533
LeftShoulder1  1.12338 -1.86154 -15.1542
LeftArm  0.196223 5.93469 -32.0002
LeftForeArm  5.36591 -69.1933 -31.8318
LeftHand  -0.0294559 5.28562 -4.14316
RightShoulder  1.63767 2.53336 21.7936
RightArm  10.7098 26.9382 53.4545
RightForeArm  -1.14677 44.4117 11.0552
RightHand  -0.0745775 -7.66134 1.5614
LeftUpLeg  5.58365 4.97874 0.0731418
LeftLeg  14.4387 5.83648 2.69661
LeftFoot  -17.2144 -0.0690827 -3.35736
LeftToes  1.70735e-010 3.74918e-011 3.68705e-011
356
root  11.1208 38.5319 -71.2521 179.565 -34.1772 179.377
RightUpLeg  -19.9694 -8.87338 -7.96481
RightLeg  7.7458 -12.5519 -1.12109
RightFoot  -5.2202 -0.1461 2.06789
RightToes  1.21801e-010 1.2921e-014 -6.02303e-014
Spine  -9.36028 -1.74231 -0.905504
Spine1  8.72668 -1.74478 -0.870528
HEad  28.5388 -10.6939 3.40191
LeftShoulder1  1.17284 -2.12695 -14.9891
LeftArm  0.151768 4.67363 -32.4189
LeftForeArm  2.44759 -67.3465 -28.7387
LeftHand  -0.0223404 5.109 -3.95147
RightShoulder  1.60287 2.35656 22.0667
RightArm  11.0984 26.8905 53.8705
RightForeArm  -0.862886 43.3914 10.6474
RightHand  -0.0621161 -7.28432 1.26538
LeftUpLeg  6.69165 5.08976 0.577384
LeftLeg  14.4723 7.49551 3.2442
LeftFoot  -17.9544 -0.1613 -4.65215
LeftToes  1.70735e-010 3.74918e-011 3.68705e-011
357
root  10.9963 38.3998 -72.1045 179.817 -32.4364 179.558
RightUpLeg  -19.7582 -6.63286 -8.36917
RightLeg  3.78563 -14.4718 -0.232218
RightFoot  -4.96245 -0.160113 2.26676
RightToes  1.21801e-010 1.2921e-014 -6.02303e-014
Spine  -9.68008 -2.1058 -1.11375
Spine1  8.80091 -2.23081 -0.202389
HEad  29.0822 -10.437 3.34639
LeftShoulder1  1.23724 -2.39873 -15.1001
LeftArm  0.0759785 3.17823 -32.6709
LeftForeArm  -0.840721 -65.1475 -25.7767
LeftHand  -0.0303611 5.34576 -1.79377
RightShoulder  1.61329 2.3925 22.0727
RightArm  11.2524 26.7395 54.3355
RightForeArm  -0.833318 42.3906 10.2781
RightHand  -0.0314397 -7.24804 -0.476361
LeftUpLeg  7.88166 4.99805 0.981277
LeftLeg  14.4307 8.95774 3.83114
LeftFoot  -18.6974 -0.293018 -6.29585
LeftToes  1.70735e-010 3.74918e-011 3.68705e-011
358
root  10.9051 38.2234 -73.0647 -179.821 -30.9444 179.547
RightUpLeg  -19.7518 -5.80865 -8.2107
RightLeg  2.04523 -13.5286 0.047687
RightFoot  -5.07559 -0.172891 2.52699
RightToes  1.21801e-010 1.2921e-014 -6.02303e-014
Spine  -10.0096 -2.34038 -1.59132
Spine1  8.99609 -2.56218 0.351973
HEad  29.3589 -10.1424 3.31188
LeftShoulder1  1.33709 -2.9103 -14.9062
LeftArm  0.117484 1.43128 -33.2077
LeftForeArm  -3.01111 -62.8322 -23.1368
LeftHand  0.00960626 4.34812 -4.13085
RightShoulder  1.61213 2.35331 22.2588
RightArm  11.5871 27.1168 54.2453
RightForeArm  -0.613064 41.3962 9.91223
RightHand  -0.0334991 -6.54392 -0.206997
LeftUpLeg  9.00056 5.12464 1.5742
LeftLeg  14.7882 9.78401 4.13542
LeftFoot  -19.3272 -0.446083 -8.03822
LeftToes  1.70735e-010 3.74918e-011 3.68705e-011
359
root  10.8668 38.0374 -74.1263 -179.519 -29.6381 179.471
RightUpLeg  -19.7629 -5.7688 -7.66991
RightLeg  2.9986 -11.7261 0.0671766
RightFoot  -5.03 -0.164777 2.36727
RightToes  1.21801e-010 1.2921e-014 -6.02303e-014
Spine  -10.0694 -2.5558 -2.15708
Spine1  9.03057 -2.86791 0.796307
HEad  29.4638 -9.94391 3.34141
LeftShoulder1  1.39628 -3.22261 -14.7731
LeftArm  0.240381 -0.629914 -33.6622
LeftForeArm  -5.59279 -60.0302 -20.556
LeftHand  0.0340436 3.89002 -4.57528
RightShoulder  1.60937 2.33676 22.2953
RightArm  11.755 27.4599 54.5295
RightForeArm  -0.212529 40.2972 9.51263
RightHand  -0.0274519 -6.13206 -0.814701
LeftUpLeg  10.0973 5.31054 2.3659
LeftLeg  15.6433 9.98093 4.33707
LeftFoot  -19.7276 -0.646198 -10.4009
LeftToes  1.70735e-010 3.74918e-011 3.68705e-011
360
root  10.8747 37.951 -75.2467 -179.401 -28.5311 179.852
RightUpLeg  -19.8946 -5.8462 -6.48416
RightLeg  5.4616 -11.5656 -0.163749
RightFoot  -3.33386 -0.294334 3.87829
RightToes  1.21801e-010 1.2921e-014 -6.02303e-014
Spine  -10.1011 -2.64376 -2.06671
Spine1  9.18794 -3.10388 1.32412
HEad  29.5932 -9.93877 3.35825
LeftShoulder1  1.50159 -3.79642 -14.5058
LeftArm  0.413891 -2.4091 -33.8547
LeftForeArm  -7.73457 -57.547 -18.6635
LeftHand  0.0560017 3.49692 -4.83779
RightShoulder  1.582 2.21671 22.4237
RightArm  12.1548 27.6963 55.0523
RightForeArm  0.309497 39.244 9.13482
RightHand  -0.0248757 -5.74381 -1.60889
LeftUpLeg  11.3053 5.07356 3.63783
LeftLeg  16.1523 10.1538 4.43885
LeftFoot  -19.2723 -0.813965 -13.3523
LeftToes  1.70735e-010 3.74918e-011 3.68705e-011
361
root  10.9125 38.028 -76.3761 -179.665 -27.1751 -178.815
RightUpLeg  -20.0944 -4.40993 -4.61708
RightLeg  6.72977 -12.1659 -0.385565
RightFoot  2.01246 -0.53065 4.64718
RightToes  1.21801e-010 1.2921e-014 -6.02303e-014
Spine  -9.9208 -2.454 -0.458219
Spine1  9.38423 -3.17384 1.80461
HEad  29.8556 -9.69081 3.48635
LeftShoulder1  1.5049 -3.86882 -14.3223
LeftArm  0.529108 -4.13414 -34.2116
LeftForeArm  -9.36993 -54.991 -16.968
LeftHand  0.0816395 3.07442 -5.1215
RightShoulder  1.61017 2.24332 22.8195
RightArm  13.0618 28.1639 55.3915
RightForeArm  0.481695 37.9335 8.71078
RightHand  -0.0273348 -5.36815 -2.6346
LeftUpLeg  12.3884 3.75828 5.45329
LeftLeg  16.7044 11.3832 4.71757
LeftFoot  -17.4606 -0.824868 -17.2656
LeftToes  1.70735e-010 3.74918e-011 3.68705e-011
362
root  11.065 38.0042 -77.6054 179.987 -25.3269 -177.362
RightUpLeg  -20.8317 -4.3422 -1.7598
RightLeg  9.60932 -10.3372 -0.398198
RightFoot  3.11945 -0.461816 3.80618
RightToes  1.21801e-010 1.2921e-014 -6.02303e-014
Spine  -9.27778 -2.16333 0.608917
Spine1  9.09409 -2.98682 2.11794
HEad  29.9151 -9.27118 3.79948
LeftShoulder1  1.50105 -3.80066 -14.4837
LeftArm  0.630665 -5.61605 -34.3486
LeftForeArm  -10.9967 -52.5436 -15.5713
LeftHand  0.119702 2.63237 -5.80772
RightShoulder  1.71348 2.53869 23.1505
RightArm  13.9015 28.6717 56.0056
RightForeArm  0.495733 35.9481 8.11436
RightHand  -0.0424344 -4.76081 -3.60101
LeftUpLeg  12.0458 2.9871 7.94166
LeftLeg  20.6767 11.9066 5.24974
LeftFoot  -15.3665 -0.688204 -21.9415
LeftToes  1.70735e-010 3.74918e-011 3.68705e-011
363
root  11.2553 37.9741 -78.7392 179.909 -23.4932 -176.397
RightUpLeg  -21.6839 -4.91227 1.0275
RightLeg  12.9422 -7.85475 -0.940036
RightFoot  2.65993 -0.485072 4.09586
RightToes  1.21801e-010 1.2921e-014 -6.02303e-014
Spine  -8.26701 -1.92149 1.3965
Spine1  8.8547 -2.61845 2.0347
HEad  29.9562 -8.6859 4.74643
LeftShoulder1  1.57273 -4.29584 -14.009
LeftArm  -0.0220138 -6.47427 -34.6166
LeftForeArm  -12.0912 -50.2505 -14.3898
LeftHand  0.12732 2.43014 -5.65714
RightShoulder  1.81971 2.82224 23.5597
RightArm  14.8023 29.5589 57.0272
RightForeArm  0.908558 33.3555 7.36263
RightHand  -0.0760711 -3.86125 -4.42155
LeftUpLeg  9.61608 2.74677 9.75411
LeftLeg  28.0358 12.1526 7.26874
LeftFoot  -11.4337 0.0466513 -25.9012
LeftToes  1.70735e-010 3.74918e-011 3.68705e-011
364
root  11.4351 37.9247 -79.7535 -179.888 -22.6948 -175.635
RightUpLeg  -22.2038 -5.64043 3.07765
RightLeg  15.0214 -6.99499 -1.04753
RightFoot  3.31578 -0.378686 3.11934
RightToes  1.21801e-010 1.2921e-014 -6.02303e-014
Spine  -7.11226 -1.9928 2.34587
Spine1  8.56249 -2.4845 1.7457
HEad  30.0823 -8.31715 5.62439
LeftShoulder1  1.63865 -4.79015 -13.5155
LeftArm  0.084061 -8.32253 -34.44
LeftForeArm  -13.6427 -47.5734 -13.184
LeftHand  0.152298 1.98594 -5.67815
RightShoulder  1.90892 3.16423 23.3672
RightArm  15.4423 30.3915 58.2149
RightForeArm  1.01661 30.9663 6.72872
RightHand  -0.109208 -3.09713 -4.82788
LeftUpLeg  4.03129 2.3595 11.1066
LeftLeg  39.219 12.1794 10.8252
LeftFoot  -4.77932 1.38952 -23.4461
LeftToes  1.70735e-010 3.74918e-011 3.68705e-011
